<?xml version="1.0" encoding="UTF-8" standalone="no"?>
<svg width="100%" height="100%" viewBox="0 0 1366 1496" version="1.1" xmlns="http://www.w3.org/2000/svg" xml:space="preserve" style="fill-rule:evenodd;clip-rule:evenodd;stroke-linejoin:round;stroke-miterlimit:2;">
  <rect id="FAVICON" x="0" y="0" width="1365.314" height="1495.253" style="fill:none;"/>
  <path d="M920.871,1380.27l-476.425,0c-217.839,0 -394.432,-176.593 -394.432,-394.429l0,-476.428c0,-217.836 176.593,-394.429 394.432,-394.429l476.425,0c217.836,0 394.429,176.593 394.429,394.429l0,476.428c0,217.836 -176.593,394.429 -394.429,394.429" style="fill:#ffa300;fill-rule:nonzero;"/>
  <path d="M358.672,271.646l0,854.306c0,72.905 59.1,132.004 132.004,132.004l101.169,0l3.179,-319.842l189.299,0l0,67.916l185.447,-184.316l-186.747,-187.195l0,65.948l-189.904,0l0,90.845l-187.454,-186.262l189.174,-188.053l0,90.333l232.653,-0.791c130.461,-17.826 207.114,-92.192 218.409,-234.894l-687.228,0Z" style="fill:#fff;fill-rule:nonzero;"/>
</svg>
