<?xml version="1.0" encoding="UTF-8" standalone="no"?><!DOCTYPE svg PUBLIC "-//W3C//DTD SVG 1.1//EN" "http://www.w3.org/Graphics/SVG/1.1/DTD/svg11.dtd"><svg width="100%" height="100%" viewBox="0 0 4500 1496" version="1.1" xmlns="http://www.w3.org/2000/svg" xmlns:xlink="http://www.w3.org/1999/xlink" xml:space="preserve" xmlns:serif="http://www.serif.com/" style="fill-rule:evenodd;clip-rule:evenodd;stroke-linejoin:round;stroke-miterlimit:2;"><rect id="LOGO-SIMPLES-PRETA" serif:id="LOGO SIMPLES PRETA" x="0" y="0" width="4500" height="1495.253" style="fill:none;"/><path d="M477.896,169.17l0,1023.35c0,87.329 70.795,158.124 158.125,158.124l121.186,0l3.81,-383.129l226.755,0l0,81.355l222.14,-220.787l-223.698,-224.237l0,78.997l-227.481,0l0,108.821l-224.548,-223.117l226.607,-225.265l0,108.207l278.688,-0.946c156.277,-21.355 248.098,-110.435 261.628,-281.374l-823.213,0Z" style="fill-rule:nonzero;"/><path d="M1883.257,843.982c-28.711,-86.132 -96.268,-123.288 -184.088,-123.288c-87.822,0 -155.378,38.845 -180.711,123.288l364.799,0Zm-633.332,89.511c0,-253.332 185.779,-439.108 449.244,-439.108c263.467,0 444.177,185.775 444.177,439.108c1.516,0.941 1.505,41.655 0.133,62.894c-1.75,27.124 -630.087,8.039 -630.087,8.039c20.268,97.956 94.576,141.866 185.777,141.866c72.622,0 126.665,-15.201 158.757,-60.799l261.776,0c-54.045,172.265 -212.799,287.111 -420.533,287.111c-263.465,0 -449.244,-185.779 -449.244,-439.111" style="fill-rule:nonzero;"/><path d="M2821.791,843.982c-28.711,-86.132 -96.268,-123.288 -184.088,-123.288c-87.822,0 -155.378,38.845 -180.711,123.288l364.799,0Zm-633.332,89.511c0,-253.332 185.779,-439.108 449.244,-439.108c263.467,0 444.177,185.775 444.177,439.108c1.516,0.941 1.505,41.655 0.135,62.894c-1.751,27.124 -630.087,8.039 -630.087,8.039c20.267,97.956 94.576,141.866 185.775,141.866c72.622,0 126.665,-15.201 158.757,-60.799l261.776,0c-54.045,172.265 -212.799,287.111 -420.533,287.111c-263.465,0 -449.244,-185.779 -449.244,-439.111" style="fill-rule:nonzero;"/><path d="M3576.236,1136.159c-114.842,0 -192.532,-82.758 -192.532,-202.666c0,-119.91 77.69,-202.668 192.532,-202.668c114.846,0 192.534,82.758 192.534,202.668c0,119.909 -77.688,202.666 -192.534,202.666m192.534,-528.622c-52.355,-74.31 -136.8,-113.152 -236.443,-113.152c-189.156,0 -405.334,138.487 -405.334,428.975c0,268.533 185.779,449.244 450.932,449.244c255.021,0 444.179,-167.201 444.179,-447.555l0,-773.509c0,0 -174.153,-6.485 -210.878,32.185c-73.327,77.213 -42.456,423.812 -42.456,423.812" style="fill-rule:nonzero;"/></svg>